<?xml version="1.0" encoding="iso-8859-1"?>
<!-- Generator: Adobe Illustrator 16.0.0, SVG Export Plug-In . SVG Version: 6.00 Build 0)  -->
<!DOCTYPE svg PUBLIC "-//W3C//DTD SVG 1.1//EN" "http://www.w3.org/Graphics/SVG/1.1/DTD/svg11.dtd">
<svg version="1.1" id="Capa_1" xmlns="http://www.w3.org/2000/svg" xmlns:xlink="http://www.w3.org/1999/xlink" x="0px" y="0px"
	 width="47.375px" height="47.375px" viewBox="0 0 47.375 47.375" style="enable-background:new 0 0 47.375 47.375;"
	 xml:space="preserve">
<g>
	<path d="M44.538,10.909l-8.616-8.642C34.465,0.805,32.526,0,30.461,0c-2.055,0-3.986,0.799-5.441,2.251L2.851,24.377
		c-1.457,1.455-2.263,3.391-2.265,5.447c-0.004,2.062,0.797,3.998,2.252,5.451l8.617,8.644c1.455,1.462,3.396,2.269,5.459,2.269
		c2.056,0,3.986-0.799,5.443-2.252L44.523,21.81c1.457-1.454,2.262-3.388,2.266-5.447C46.792,14.302,45.991,12.364,44.538,10.909z
		 M17.413,38.98c-0.17,0.17-0.365,0.207-0.498,0.207c-0.135,0-0.33-0.037-0.502-0.209l-8.621-8.646
		c-0.17-0.17-0.205-0.363-0.205-0.498c0-0.134,0.037-0.331,0.209-0.502l6.031-6.02l9.619,9.646L17.413,38.98z M33.45,44.154
		c0,1.779-1.441,3.221-3.221,3.221c-0.713,0-1.363-0.238-1.898-0.629c-0.314,0.381-0.787,0.629-1.322,0.629
		c-0.447,0-0.852-0.176-1.156-0.454c-0.233,0.272-0.567,0.454-0.953,0.454c-0.704,0-1.271-0.568-1.271-1.27
		c0-0.703,0.566-1.271,1.271-1.271c0.188,0,0.367,0.048,0.527,0.124c0.268-0.61,0.873-1.037,1.582-1.037
		c0.01,0,0.016,0.002,0.023,0.002c0.119-1.669,1.498-2.989,3.197-2.989C32.008,40.934,33.45,42.375,33.45,44.154z M36.051,46.059
		c0,0.728-0.59,1.315-1.315,1.315c-0.727,0-1.316-0.589-1.316-1.315c0-0.728,0.59-1.315,1.316-1.315
		C35.461,44.743,36.051,45.332,36.051,46.059z"/>
</g>
<g>
</g>
<g>
</g>
<g>
</g>
<g>
</g>
<g>
</g>
<g>
</g>
<g>
</g>
<g>
</g>
<g>
</g>
<g>
</g>
<g>
</g>
<g>
</g>
<g>
</g>
<g>
</g>
<g>
</g>
</svg>
