<svg width="22" height="25" viewBox="0 1 24 25" fill="none" xmlns="http://www.w3.org/2000/svg">
<path d="M0 14.3552C0.0825 13.8197 0.135 13.2772 0.2545 12.7502C0.412 12.0537 0.745 11.4302 1.1805 10.8627C1.2805 10.7347 1.3695 10.6877 1.5475 10.7277C4.6635 11.4252 6.8725 13.8807 7.3885 17.0967C7.9385 20.5497 9.8885 22.9202 13.1385 24.2232L13.41 24.3322C12.7685 24.6787 12.117 24.8572 11.4385 24.9497C11.3688 24.9627 11.2999 24.9794 11.232 24.9997H9.863C9.818 24.9847 9.774 24.9657 9.728 24.9547C9.034 24.7957 8.3195 24.6962 7.649 24.4682C5.654 23.7887 4.0185 22.5652 2.6545 20.9757C1.4115 19.5257 0.5365 17.8857 0.176 15.9967C0.0885 15.5362 0.057 15.0652 0 14.5997V14.3552Z" fill="#3D3522"/>
<path d="M21.7772 9.37505C21.7437 9.77905 21.7232 10.1841 21.6772 10.5861C21.3997 12.9066 20.6072 15.0021 18.9227 16.6806C18.5067 17.0951 18.0082 17.4271 17.4982 17.8366C17.4372 17.5721 17.3957 17.3946 17.3552 17.2176C16.9052 15.2616 15.9787 13.5471 14.6872 12.0256C14.5112 11.8186 14.4752 11.6616 14.5842 11.4081C14.8567 10.7645 15.2057 10.1562 15.6237 9.59605C16.7498 8.1171 17.3787 6.3195 17.4202 4.46105C17.4614 3.07461 17.175 1.698 16.5842 0.443055C16.5602 0.393055 16.5342 0.343055 16.5117 0.289555C16.5067 0.278055 16.5162 0.260055 16.5272 0.206055C16.7552 0.299055 16.9822 0.378055 17.1977 0.481555C18.6727 1.19005 19.6952 2.35355 20.4527 3.76905C21.2527 5.26105 21.6527 6.86355 21.7307 8.55105C21.7377 8.71205 21.7612 8.87255 21.7772 9.03305V9.37505Z" fill="#3D3522"/>
<path d="M14.6489 0C15.6489 1.47267 16.0756 3.096 15.9289 4.87C15.8044 6.362 15.2454 7.675 14.3584 8.8735C13.9649 9.405 13.6539 9.997 13.2939 10.5805C11.8679 9.319 10.2314 8.3545 8.29395 7.79C8.47695 7.0215 8.61745 6.255 8.84395 5.5155C9.31895 3.9655 10.1099 2.5975 11.3219 1.499C12.1649 0.735 13.1319 0.2135 14.2719 0.0415C14.3018 0.0317448 14.3301 0.0177698 14.3559 0L14.6489 0Z" fill="#3D3522"/>
<path d="M2.76562 9.54552C3.50695 9.15139 4.32686 8.92762 5.16562 8.89052C7.71562 8.77452 9.90212 9.71152 11.8486 11.2735C13.6711 12.736 15.0111 14.5565 15.7331 16.7975C16.2166 18.2975 16.3436 19.817 15.8686 21.3475C15.6818 21.972 15.3707 22.5522 14.9541 23.0535C14.921 23.0867 14.881 23.1122 14.8369 23.1283C14.7929 23.1444 14.7458 23.1506 14.6991 23.1465C11.8306 22.609 9.38262 20.15 8.89362 17.291C8.69712 16.141 8.46562 15.012 7.91712 13.9695C6.82879 11.9029 5.19246 10.4583 3.00812 9.63602L2.76562 9.54552Z" fill="#3D3522"/>
</svg>
